<svg width="232" height="52" viewBox="0 0 232 52" fill="none" xmlns="http://www.w3.org/2000/svg">
<g clip-path="url(#clip0_4689_127974)">
<path d="M32.4082 15.7391L21.4062 39.2978H26.9072L28.701 35.1123H36.7134L38.5072 39.2978H44.1278L33.1257 15.7391H32.4082V15.7391ZM30.3752 30.9267L32.6474 25.3061L34.9196 30.9267H30.3752Z" fill="#FB0D1B"/>
<path d="M50.9443 34.7535V29.3721C51.5422 29.2525 52.1402 29.2525 52.9773 29.2525C55.8474 29.2525 57.2824 30.3288 57.2824 32.003C57.2824 33.7968 55.967 34.7535 53.2165 34.7535C52.1402 34.8731 51.6618 34.8731 50.9443 34.7535ZM50.9443 25.5453V20.6422C51.6618 20.5226 52.3794 20.403 53.4556 20.403C55.7278 20.403 56.9237 21.5989 56.9237 22.9144C56.9237 24.5886 55.6082 25.5453 52.9773 25.5453C52.0206 25.5453 51.5422 25.5453 50.9443 25.5453ZM45.6824 16.2175V39.0586C47.9546 39.2978 50.5855 39.537 52.6185 39.537C59.6742 39.537 63.1422 36.3081 63.1422 32.7205C63.1422 30.0896 61.5876 28.1762 58.4783 27.2195C61.1093 26.1432 62.5443 24.469 62.5443 22.0772C62.5443 18.8484 59.0763 15.7391 52.2598 15.7391C50.3464 15.6195 47.3567 15.8587 45.6824 16.2175Z" fill="#FB0D1B"/>
<path d="M65.1752 15.8588V39.2979H80.0041V34.2752H70.6763V29.7309H79.167V25.067H70.6763V20.8814H80.0041V15.8588H65.1752Z" fill="#FB0D1B"/>
<path d="M88.2556 27.2196V20.7619C88.9732 20.6423 89.5711 20.6423 90.4082 20.6423C92.6804 20.6423 94.235 21.8382 94.235 23.7516C94.235 26.1433 92.5608 27.3392 90.0495 27.3392C89.3319 27.2196 88.9732 27.2196 88.2556 27.2196ZM82.8742 16.098V39.2979H88.2556V31.6443C88.9732 31.6443 89.4515 31.7639 90.2886 31.7639C90.6474 31.7639 90.8866 31.7639 91.2453 31.7639L95.1917 39.4175H101.291L95.7897 30.4485C98.301 28.8938 99.8556 26.5021 99.8556 23.632C99.8556 19.3268 96.9855 15.8588 89.6907 15.8588C86.9402 15.7392 84.7876 15.8588 82.8742 16.098Z" fill="#FB0D1B"/>
<path d="M103.563 15.8588V39.2979H118.272V34.2752H108.944V15.8588H103.563Z" fill="#FB0D1B"/>
<path d="M120.783 15.8588V39.2979H135.612V34.2752H126.165V29.7309H134.775V25.067H126.165V20.8814H135.612V15.8588H120.783Z" fill="#FB0D1B"/>
<path d="M143.146 27.2196V20.7619C143.864 20.6423 144.462 20.6423 145.299 20.6423C147.571 20.6423 149.126 21.8382 149.126 23.7516C149.126 26.1433 147.452 27.3392 144.94 27.3392C144.223 27.2196 143.864 27.2196 143.146 27.2196ZM137.765 16.098V39.2979H143.146V31.6443C143.864 31.6443 144.342 31.7639 145.179 31.7639C145.538 31.7639 145.777 31.7639 146.136 31.7639L150.082 39.4175H156.181L150.68 30.4485C153.192 28.8938 154.746 26.5021 154.746 23.632C154.746 19.3268 151.876 15.8588 144.581 15.8588C141.95 15.7392 139.678 15.8588 137.765 16.098Z" fill="#FB0D1B"/>
<path d="M160.247 35.3516C161.443 35.3516 162.28 36.3083 162.28 37.3845C162.28 38.5804 161.324 39.5371 160.247 39.5371C159.052 39.5371 158.214 38.5804 158.214 37.3845C158.095 36.3083 159.052 35.3516 160.247 35.3516Z" fill="#5D5D5D"/>
<path d="M174.359 39.6566C166.944 39.6566 161.802 34.5144 161.802 27.5783C161.802 20.6423 167.064 15.5 174.359 15.5C177.229 15.5 179.86 16.4567 181.893 17.6526L180.577 21.001C178.783 19.9247 176.392 19.2072 174.359 19.2072C169.216 19.2072 166.107 22.6752 166.107 27.5783C166.107 32.4814 169.336 35.9494 174.478 35.9494C176.511 35.9494 179.023 35.2319 180.816 34.1556L182.012 37.5041C180.099 38.6999 177.348 39.6566 174.359 39.6566Z" fill="#5D5D5D"/>
<path d="M194.21 39.6566C187.394 39.6566 182.491 34.5144 182.491 27.5783C182.491 20.6423 187.633 15.5 194.449 15.5C201.266 15.5 206.169 20.6423 206.169 27.5783C206.049 34.5144 200.907 39.6566 194.21 39.6566ZM194.33 19.0876C189.905 19.0876 186.796 22.6752 186.796 27.5783C186.796 32.4814 189.905 36.069 194.33 36.069C198.755 36.069 201.864 32.3618 201.864 27.5783C201.864 22.6752 198.755 19.0876 194.33 19.0876Z" fill="#5D5D5D"/>
<path d="M227.814 39.2979L227.575 25.3062L220.161 36.4278H219.682L212.268 25.1866L212.029 39.2979H208.082L209.039 15.6196L209.637 15.5L220.041 31.0464L230.206 15.5L230.804 15.6196L231.761 39.2979H227.814Z" fill="#5D5D5D"/>
<path d="M14.3505 15.8588V25.067H5.38141V15.8588H-3.05176e-05V25.067L2.39172 27.4587L-3.05176e-05 29.7309V39.2979H5.38141V29.8505H14.3505V39.2979H19.8515V15.8588H14.3505Z" fill="#FB0D1B"/>
</g>
<defs>
<clipPath id="clip0_4689_127974">
<rect width="232" height="25.1134" fill="white" transform="translate(0 15.5)"/>
</clipPath>
</defs>
</svg>
